<svg class="hidden" width="156px" height="142px" x="0px" y="0px" viewBox="0 0 156 142" xmlns="http://www.w3.org/2000/svg" version="1.1" style="transform: translate(0,0)"><rect x="0" y="0" width="156" height="142" style="fill:#FFFFFF;"></rect><g transform="translate(10, 10)" style="fill:#000000;"><rect x="0" y="0" width="4" height="100"></rect><rect x="6" y="0" width="2" height="100"></rect><rect x="12" y="0" width="6" height="100"></rect><rect x="22" y="0" width="2" height="100"></rect><rect x="26" y="0" width="4" height="100"></rect><rect x="34" y="0" width="6" height="100"></rect><rect x="44" y="0" width="6" height="100"></rect><rect x="52" y="0" width="2" height="100"></rect><rect x="56" y="0" width="8" height="100"></rect><rect x="66" y="0" width="4" height="100"></rect><rect x="74" y="0" width="6" height="100"></rect><rect x="84" y="0" width="2" height="100"></rect><rect x="88" y="0" width="2" height="100"></rect><rect x="92" y="0" width="2" height="100"></rect><rect x="102" y="0" width="4" height="100"></rect><rect x="110" y="0" width="4" height="100"></rect><rect x="120" y="0" width="6" height="100"></rect><rect x="128" y="0" width="2" height="100"></rect><rect x="132" y="0" width="4" height="100"></rect><text style="font: 14px monospace" text-anchor="middle" x="68" y="122">122</text></g></svg>